<svg xmlns="http://www.w3.org/2000/svg" version="1.1" xmlns:xlink="http://www.w3.org/1999/xlink" xmlns:svgjs="http://svgjs.dev/svgjs" width="2000" height="1500" viewBox="0 0 2000 1500"><rect width="2000" height="1500" fill="#ee3e38"></rect><g transform="matrix(0.75,0,0,0.75,249.090909090909,389.2699532267126)"><svg viewBox="0 0 396 191" data-background-color="#ee3e38" preserveAspectRatio="xMidYMid meet" height="964" width="2000" xmlns="http://www.w3.org/2000/svg" xmlns:xlink="http://www.w3.org/1999/xlink"><g id="tight-bounds" transform="matrix(1,0,0,1,0.2400000000000091,-0.2034039644565837)"><svg viewBox="0 0 395.52 191.40680792891317" height="191.40680792891317" width="395.52"><g><svg viewBox="0 0 395.52 191.40680792891317" height="191.40680792891317" width="395.52"><g><svg viewBox="0 0 395.52 191.40680792891317" height="191.40680792891317" width="395.52"><g id="textblocktransform"><svg viewBox="0 0 395.52 191.40680792891317" height="191.40680792891317" width="395.52" id="textblock"><g><svg viewBox="0 0 395.52 191.40680792891317" height="191.40680792891317" width="395.52"><g transform="matrix(1,0,0,1,0,0)"><svg width="395.52" viewBox="0.75 -35.400001525878906 73.1500015258789 35.400001525878906" height="191.40680792891317" data-palette-color="#ffffff"><path d="M24.3 0L13.15 0 13.15-14.5 0.75-32.4 0.75-35.4 13.3-35.4 18.3-25.1 19.3-25.1 24.25-35.4 36.75-35.4 36.75-32.4 24-14.2 24.3-9.15 24.3 0ZM52.5 0L41.5 0 41.5-27.35 40.5-32.4 41.5-35.4 59.5-35.4Q63.55-35.4 66.45-34.1 69.35-32.8 70.9-29.93 72.45-27.05 72.45-22.35L72.45-22.35Q72.45-18 71-15.2 69.55-12.4 66.75-10.95L66.75-10.95 67.6-10.25 71.05-5.55 73.9-3 73.9 0 60.65 0 55.15-9.15 52.5-9.15 52.5-8.05 53-3.05 52.5 0ZM52-25.9L52.5-18.5 55.4-18.5Q57.15-18.5 58.42-18.65 59.7-18.8 60.4-19.58 61.1-20.35 61.1-22.1L61.1-22.1Q61.1-23.95 60.35-24.75 59.6-25.55 58.27-25.73 56.95-25.9 55.2-25.9L55.2-25.9 52-25.9Z" opacity="1" transform="matrix(1,0,0,1,0,0)" fill="#ffffff" class="undefined-text-0" data-fill-palette-color="primary" id="text-0"></path></svg></g></svg></g></svg></g></svg></g></svg></g><defs></defs></svg><rect width="395.52" height="191.40680792891317" fill="none" stroke="none" visibility="hidden"></rect></g></svg></g></svg>